<?xml version="1.0" encoding="UTF-8"?>
<svg id="Layer_1" xmlns="http://www.w3.org/2000/svg" version="1.1" viewBox="0 0 1468 285.6">
  <!-- Generator: Adobe Illustrator 29.5.1, SVG Export Plug-In . SVG Version: 2.1.0 Build 141)  -->
  <defs>
    <style>
      .st0 {
        fill: #020000;
      }
    </style>
  </defs>
  <path class="st0" d="M1374.6,91.4c-21.2,0-34.5,19.4-34.5,51.3s2.1,23.1,6.1,31.5l48.3-74.3c-5.3-5.6-12.1-8.6-20-8.6h0Z"/>
  <path class="st0" d="M1468,285.6V0H0v285.6h1468.1,0ZM1158.6,269.8H15.8V15.8h1142.8v254ZM1255.8,206.3c-27.2,0-44.7-17.3-44.7-40.1h13.7c0,15.4,12.4,26.8,31,26.8s31.3-7.9,31.3-30.3-12.1-28.5-29.1-28.5-24.5,7.5-28.4,14h-14.7l6.1-67.3h70.4v23.3h-13.7v-10h-44.7l-4,39.4c4.9-6,13.7-11.9,31-11.9s39.6,15.4,39.6,41.3-17.9,43.3-44,43.3h0ZM1408.2,189.5c-8.4,11-20.3,16.8-33.6,16.8s-26.1-5.8-34.5-16.8c-8.4-11.6-12.6-27.7-12.6-46.8s4.2-35.9,12.6-47.8c8.4-11,21-16.8,34.5-16.8s25.2,5.8,33.6,17.5c8.4,11.2,12.6,27.7,12.6,47.1s-4.2,35.2-12.6,46.8Z"/>
  <path class="st0" d="M1354.1,185.4c5.4,5.3,12.4,8.2,20.5,8.2s17.5-4.2,23.5-12.4c6.8-8.6,10.2-22.1,10.2-38.5s-2.1-23-6-31.2l-48.2,73.9h0Z"/>
  <path class="st0" d="M172,170.8c0-14.8-8.4-24.8-24.9-29.6,13.6-4.8,21.3-15.2,21.3-28.9s-3.5-16.7-10-22.3c-7.4-6.4-18.2-9.6-32.1-9.6h-46v13.4h11.6v97.9h-11.6v13.4h48.2c26.4,0,43.4-13.5,43.4-34.4h0ZM107,93.7h19c17.5,0,27.5,7.3,27.5,20s-10.5,21.7-28.8,21.7h-17.7v-41.7ZM107,147.9h18.1c20.4,0,32,8.1,32,22.2s-10.8,21.9-28.1,21.9h-22v-44.1Z"/>
  <polygon class="st0" points="482.3 191.8 470.7 191.8 470.7 107.8 512.3 187.4 512.5 187.7 516.9 187.7 558.9 107.8 558.9 191.8 547.3 191.8 547.3 205.2 585.9 205.2 585.9 191.8 574 191.8 574 93.9 586 93.9 586 80.5 559.6 80.5 514.9 163.8 470.4 80.7 470.3 80.5 443.6 80.5 443.6 93.9 455.6 93.9 455.6 191.8 443.6 191.8 443.6 205.2 482.3 205.2 482.3 191.8"/>
  <path class="st0" d="M647.7,191.8h-12.5v-31.5c3.7.2,10.4.3,17,.3,28.6,0,46.4-15.6,46.4-40.8s-19-39.4-46.2-39.4h-43.9v13.4h11.6v97.9h-11.6v13.4h39.2v-13.4ZM635.2,93.9h17.3c18.5,0,30.9,10.5,30.9,26.2s-11.7,27.3-30.5,27.3-15.5-.2-17.7-.3v-53.2h0Z"/>
  <polygon class="st0" points="729.3 93.3 759.3 93.3 759.3 191.8 746.9 191.8 746.9 205.2 786.9 205.2 786.9 191.8 774.4 191.8 774.4 93.3 804.4 93.3 804.4 109.1 818.8 109.1 818.8 80.5 714.9 80.5 714.9 109.1 729.3 109.1 729.3 93.3"/>
  <path class="st0" d="M364.7,207.5c35.7,0,64.6-28.9,64.6-64.6s-28.9-64.6-64.6-64.6-64.6,28.9-64.6,64.6,28.9,64.6,64.6,64.6ZM364.7,93.3c27.3,0,49.5,22.2,49.5,49.5s-22.2,49.5-49.5,49.5-49.5-22.2-49.5-49.5,22.2-49.5,49.5-49.5h0Z"/>
  <path class="st0" d="M893.8,207.5c35.7,0,64.6-28.9,64.6-64.6s-28.9-64.6-64.6-64.6-64.6,28.9-64.6,64.6,28.9,64.6,64.6,64.6ZM893.8,93.3c27.3,0,49.5,22.2,49.5,49.5s-22.2,49.5-49.5,49.5-49.5-22.2-49.5-49.5,22.2-49.5,49.5-49.5h0Z"/>
  <path class="st0" d="M229.5,191.8h-11.9v-37.1c3.1.2,14,.3,14,.3,6.9,0,12.7.9,15.9,6.8l17,33.9c4.1,8.2,4.4,9.5,14.1,9.5h11.1v-13.4h-4.7c-4.2,0-7.1-2.3-8.9-6l-15-30.2c-1.7-3.4-4.2-5-5-5.5,14.9-6,23.6-18.2,23.6-33.1,0-22.1-17.8-36.4-45.5-36.4h-43.3v13.4h11.6v97.9h-11.6v13.4h38.7v-13.4h0ZM217.6,93.9h15.9c19.8,0,31.1,8.5,31.1,23.4s-12.4,24.5-32.4,24.5-11.1-.2-14.5-.4v-47.5h0Z"/>
  <polygon class="st0" points="1010.8 191.8 998.9 191.8 998.9 106.9 1073.5 205.2 1082.4 205.2 1082.4 93.9 1094 93.9 1094 80.4 1055.1 80.4 1055.1 93.9 1068 93.9 1068 173.7 997.5 80.7 997.3 80.4 972.7 80.4 972.7 93.9 984.3 93.9 984.3 191.8 972.7 191.8 972.7 205.2 1010.8 205.2 1010.8 191.8"/>
</svg>